<?xml version="1.0" encoding="UTF-8"?>
<svg xmlns="http://www.w3.org/2000/svg" xmlns:xlink="http://www.w3.org/1999/xlink" viewBox="0 0 24 24" width="24px" height="24px">
<g id="surface168534">
<path style="fill-rule:nonzero;fill:rgb(100%,100%,100%);fill-opacity:1;stroke-width:10;stroke-linecap:butt;stroke-linejoin:round;stroke:rgb(100%,100%,100%);stroke-opacity:1;stroke-miterlimit:10;" d="M 86.000003 75.866007 L 138.27478 23.59123 L 148.408776 33.725226 L 96.133999 86.000003 L 148.408776 138.27478 L 138.27478 148.408776 L 86.000003 96.133999 L 33.725226 148.408776 L 23.59123 138.27478 L 75.866007 86.000003 L 23.59123 33.725226 L 33.725226 23.59123 Z M 86.000003 75.866007 " transform="matrix(0.131442,0,0,0.131442,0.696,0.696)"/>
<path style=" stroke:none;fill-rule:nonzero;fill:rgb(100%,100%,100%);fill-opacity:1;" d="M 5.128906 3.796875 L 3.796875 5.128906 L 10.667969 12 L 3.796875 18.871094 L 5.128906 20.203125 L 12 13.332031 L 18.871094 20.203125 L 20.203125 18.871094 L 13.332031 12 L 20.203125 5.128906 L 18.871094 3.796875 L 12 10.667969 Z M 5.128906 3.796875 "/>
</g>
</svg>