<svg width="120" height="124" viewBox="0 0 155 124" fill="none" xmlns="http://www.w3.org/2000/svg">
<rect y="61.4351" width="16" height="35" rx="8" transform="rotate(-6 0 61.4351)" fill="#1D1D1D"/>
<rect x="8.0376" y="54.4734" width="16" height="49" rx="8" transform="rotate(-6 8.0376 54.4734)" fill="#1D1D1D"/>
<rect x="131.391" y="52.801" width="16" height="49" rx="8" transform="rotate(6 131.391 52.801)" fill="#1D1D1D"/>
<rect x="138.659" y="60" width="16" height="35" rx="8" transform="rotate(6 138.659 60)" fill="#1D1D1D"/>
<path d="M17.7856 61.503C18.4523 41.8363 31.2856 2.40299 77.2856 2.00299C123.286 1.60299 136.786 41.503 137.786 61.503" stroke="#1D1D1D" stroke-width="4"/>
<path d="M57.676 50.539L54.244 50.011V47.811H60.008C60.9173 47.811 62.2227 47.7523 63.924 47.635C65.6253 47.5177 66.9013 47.459 67.752 47.459C73.208 47.459 77.256 48.8377 79.896 51.595C82.5653 54.323 83.9 58.1657 83.9 63.123C83.9 66.5843 83.2107 69.6643 81.832 72.363C80.4827 75.0323 78.576 77.115 76.112 78.611C73.648 80.107 70.8173 80.855 67.62 80.855C66.916 80.855 65.7133 80.7963 64.012 80.679C62.252 80.5617 60.932 80.503 60.052 80.503H54.024V78.347L57.676 77.907V50.539ZM62.34 78.039C63.3667 78.2737 64.6867 78.391 66.3 78.391H67.62C69.82 78.3617 71.756 77.8043 73.428 76.719C75.1293 75.6337 76.4493 74.0203 77.388 71.879C78.3267 69.7083 78.796 67.083 78.796 64.003C78.796 59.3683 77.784 55.8483 75.76 53.443C73.7653 51.0377 70.744 49.835 66.696 49.835C65.8453 49.835 64.8333 49.8937 63.66 50.011C63.1613 50.099 62.7213 50.143 62.34 50.143V78.039ZM85.0797 86.531C86.3704 86.1497 87.5291 85.4603 88.5558 84.463C89.5824 83.495 90.3304 82.2923 90.7998 80.855C91.1811 79.7403 91.4304 78.4497 91.5478 76.983C91.6651 75.487 91.7238 73.199 91.7238 70.119V50.583L87.4998 50.011V47.811H100.436V50.011L96.4318 50.583V68.403V70.471C96.4318 72.7883 96.4024 74.651 96.3438 76.059C96.2851 77.467 96.1531 78.6697 95.9478 79.667C95.4198 82.0137 94.2611 83.9497 92.4718 85.475C90.6824 87.0003 88.6144 87.9683 86.2678 88.379L85.0797 86.531Z" fill="#1D1D1D"/>
<path d="M46.357 100.256L45.8869 99.6575L46.302 99.197L47.3866 100.174C47.55 100.322 47.7793 100.51 48.0745 100.741C48.1433 100.794 48.2443 100.876 48.3776 100.987C48.5157 101.102 48.6368 101.207 48.7408 101.301C49.652 102.122 50.1277 102.963 50.1677 103.825C50.2127 104.691 49.8581 105.543 49.1038 106.38C48.5772 106.964 47.9946 107.382 47.3562 107.632C46.7228 107.887 46.082 107.955 45.4339 107.838C44.7903 107.716 44.1912 107.404 43.6365 106.905C43.4929 106.775 43.2765 106.562 42.9873 106.266C42.7179 105.987 42.5312 105.801 42.4273 105.707L41.2981 104.689L41.6998 104.244L42.3536 104.698L46.357 100.256ZM43.4106 105.691C43.5388 105.888 43.754 106.122 44.0561 106.394C44.5602 106.831 45.1275 106.983 45.7579 106.851C46.3928 106.714 47.0606 106.257 47.7613 105.48C48.4263 104.742 48.8009 104.047 48.8851 103.396C48.9737 102.74 48.7259 102.149 48.1415 101.622C48.0177 101.511 47.8921 101.411 47.7649 101.323C47.6425 101.24 47.5568 101.18 47.5078 101.145L43.4106 105.691Z" fill="#1D1D1D"/>
<path d="M58.4798 108.738L56.1115 107.656L55.0069 108.601L54.3977 108.17L55.5152 106.531L60.0069 108.882L59.9737 109.463L54.16 112.763L53.2286 113.055L56.0501 114.306L57.2651 113.192L57.8688 113.678L56.64 115.529L51.7674 112.978L51.7386 112.365L57.6371 109.075L58.4798 108.738Z" fill="#1D1D1D"/>
<path d="M65.3871 111.655L64.5995 111.31L64.7596 110.711L67.851 111.537L67.6909 112.136L66.8072 112.035L65.2626 117.812L66.0844 118.145L65.932 118.715L62.8406 117.889L62.9955 117.309L63.8425 117.432L65.3871 111.655Z" fill="#1D1D1D"/>
<path d="M75.3254 112.607L76.8547 112.653L78.9596 119.489L79.5363 119.607L79.5182 120.206L76.5696 120.118L76.5876 119.518L77.3403 119.44L76.9897 118.129L74.4008 118.051L73.9715 119.349L74.7785 119.463L74.7604 120.063L72.2115 119.986L72.2196 119.386L72.8224 119.304L75.3254 112.607ZM75.9641 114.317L75.8077 113.532L75.594 114.315L74.6119 117.357L76.8109 117.424L75.9641 114.317Z" fill="#1D1D1D"/>
<path d="M85.2255 112.931L84.4656 112.976L84.3236 112.373L85.7448 112.038C85.959 111.988 86.2447 111.907 86.602 111.796C86.6848 111.769 86.8098 111.733 86.977 111.687C87.1507 111.639 87.3057 111.599 87.442 111.567C88.636 111.286 89.5986 111.375 90.3296 111.833C91.0671 112.289 91.5649 113.066 91.823 114.163C92.0032 114.928 92.0142 115.645 91.8562 116.312C91.7047 116.978 91.396 117.544 90.9303 118.009C90.4631 118.469 89.8661 118.784 89.1393 118.955C88.9511 118.999 88.6527 119.056 88.2443 119.124C87.8618 119.187 87.6024 119.234 87.4661 119.266L85.9865 119.614L85.8491 119.03L86.5952 118.752L85.2255 112.931ZM88.0135 118.449C88.2479 118.456 88.563 118.412 88.9589 118.319C89.6048 118.154 90.0531 117.774 90.3039 117.181C90.5532 116.581 90.5579 115.772 90.3182 114.753C90.0907 113.786 89.7334 113.083 89.2463 112.642C88.7576 112.196 88.1305 112.063 87.3647 112.243C87.2025 112.281 87.049 112.327 86.9043 112.382C86.7661 112.435 86.6686 112.472 86.6117 112.492L88.0135 118.449Z" fill="#1D1D1D"/>
<path d="M96.2405 109.514L95.4715 109.769L95.1839 109.22L99.906 106.748L100.8 108.176L100.18 108.501L99.4286 107.777L97.4733 108.699L98.721 111.082L99.9385 110.411L99.6999 109.61L100.267 109.313L101.389 111.457L100.822 111.754L100.282 111.066L99.0363 111.685L100.344 114.183L102.433 112.954L102.353 111.551L103.115 111.389L103.733 113.131L98.6389 115.798L98.3607 115.266L99.0142 114.811L96.2405 109.514Z" fill="#1D1D1D"/>
<path d="M113.076 105.968C113.002 106.035 112.82 106.028 112.532 105.947C112.239 105.861 111.798 105.706 111.211 105.482C110.706 105.29 110.294 105.142 109.973 105.035C109.653 104.929 109.372 104.855 109.128 104.814L109.15 106.168L110.342 107.49L111.054 106.996L111.449 107.434L109.139 109.516L108.737 109.071L109.257 108.468L105.254 104.025L104.587 104.451L104.172 103.99L106.408 101.975L106.823 102.436L106.338 103.048L108.521 105.47L108.292 101.287L107.596 101.74L107.181 101.279L109.186 99.4715L109.601 99.932L109.072 100.584L109.09 103.502C109.406 103.505 109.793 103.565 110.249 103.683C110.701 103.796 111.275 103.961 111.972 104.176C112.483 104.335 112.862 104.447 113.109 104.511C113.351 104.571 113.511 104.589 113.588 104.565L114.011 104.332L114.406 104.77L113.076 105.968Z" fill="#1D1D1D"/>
<path d="M38.977 27.5375C39.107 27.6715 39.2548 27.751 39.4204 27.7761C39.5823 27.7974 39.756 27.7849 39.9415 27.7386C40.1308 27.6887 40.326 27.6256 40.527 27.5494C40.7319 27.4694 40.9404 27.3971 41.1526 27.3324C41.3686 27.264 41.5823 27.22 41.7938 27.2005C42.0092 27.1774 42.2219 27.2013 42.4321 27.2723C42.6385 27.3395 42.8383 27.4726 43.0314 27.6716C43.2617 27.9089 43.4031 28.1694 43.4554 28.453C43.5077 28.7367 43.4713 29.0284 43.3462 29.3283C43.221 29.6282 43.0072 29.9248 42.7049 30.2183C42.4944 30.4226 42.2845 30.5854 42.0753 30.7067C41.8698 30.8244 41.6706 30.9062 41.4776 30.9524L41.5471 31.2193L41.3462 31.4143C41.2122 31.2916 41.0558 31.1611 40.8768 31.0226C40.6941 30.8803 40.5132 30.7437 40.3342 30.6128C40.1514 30.4781 39.989 30.3644 39.8471 30.2718L39.9808 30.0305C40.4156 30.2105 40.793 30.3198 41.113 30.3586C41.4369 30.3936 41.7144 30.3732 41.9456 30.2975C42.1769 30.2142 42.371 30.0964 42.5279 29.9441C42.6542 29.8215 42.7466 29.6946 42.8052 29.5635C42.8638 29.4248 42.8828 29.2912 42.8621 29.1627C42.8415 29.0266 42.7755 28.9011 42.664 28.7863C42.5303 28.6485 42.3825 28.569 42.2207 28.5477C42.0551 28.5226 41.8776 28.5351 41.6883 28.585C41.4991 28.6275 41.302 28.6887 41.0972 28.7686C40.8961 28.8448 40.6895 28.919 40.4772 28.9913C40.265 29.056 40.0531 29.1019 39.8415 29.1289C39.63 29.1483 39.4247 29.1283 39.2257 29.0688C39.023 29.0054 38.8288 28.878 38.643 28.6867C38.4202 28.457 38.2825 28.2042 38.2301 27.9281C38.1777 27.6444 38.2104 27.3526 38.328 27.0526C38.4456 26.7526 38.6499 26.4615 38.9407 26.1792C39.1015 26.0232 39.2694 25.8937 39.4444 25.7907C39.6194 25.6877 39.8128 25.6189 40.0245 25.5844L39.9494 25.3117L40.1503 25.1167C40.3551 25.297 40.5824 25.4814 40.8323 25.67C41.086 25.8548 41.3193 26.0186 41.5321 26.1613L41.3984 26.4026C41.0051 26.2194 40.6578 26.1181 40.3563 26.0985C40.0549 26.0789 39.7979 26.109 39.5855 26.1888C39.3731 26.2686 39.2 26.3735 39.066 26.5035C38.9014 26.6633 38.8064 26.8372 38.781 27.0254C38.7594 27.2099 38.8247 27.3806 38.977 27.5375Z" fill="#1D1D1D"/>
<path d="M51.1564 21.5119L51.3917 21.3601L51.9797 22.98L48.6117 25.1526L48.4599 24.9173L48.8296 24.6788L48.8535 24.5682L46.3382 20.6691L46.2276 20.6453L45.8579 20.8838L45.7061 20.6485L47.622 19.4125L47.7738 19.6478L47.4041 19.8863L47.3802 19.9969L49.8955 23.8961L50.0061 23.9199L50.4161 23.6554C50.7075 23.4675 50.9275 23.1986 51.0763 22.8487C51.2222 22.4944 51.2489 22.0488 51.1564 21.5119ZM47.4819 23.8441L47.2911 23.5483L48.0907 22.1757L48.1341 22.2429L49.3872 20.0827L49.578 20.3785L48.3249 22.5387L48.2815 22.4715L47.4819 23.8441Z" fill="#1D1D1D"/>
<path d="M56.7933 20.4128L56.6932 20.1513L57.1266 19.9855L57.2686 14.4919L57.8289 14.2774L61.5796 18.2814L62.013 18.1156L62.1131 18.3771L59.8641 19.2377L59.764 18.9762L60.1974 18.8103L60.2435 18.707L57.6195 15.8566L57.5821 15.8709L57.494 19.7592L57.5973 19.8053L58.2249 19.5652L58.325 19.8267L56.7933 20.4128ZM57.427 18.2858L57.3269 18.0243L59.7626 17.0922L59.8627 17.3537L57.427 18.2858Z" fill="#1D1D1D"/>
<path d="M69.2823 16.682L66.91 11.8662L66.4737 11.9225L66.4378 11.6448L68.8022 11.3395L68.838 11.6172L68.4016 11.6736L68.3326 11.7632L69.8078 14.8799L69.8475 14.8748L70.3945 12.239L70.0043 11.4666L69.5838 11.5209L69.548 11.2432L71.96 10.9318L71.9958 11.2095L71.4563 11.2792L71.3872 11.3687L72.9259 14.4773L72.9656 14.4722L73.4739 11.0993L73.3843 11.0302L72.7099 11.1173L72.674 10.8396L74.3085 10.6286L74.3443 10.9062L73.8841 10.9657L73.0907 16.1903L72.4956 16.2671L70.7073 12.7875L70.6676 12.7926L69.8773 16.6052L69.2823 16.682Z" fill="#1D1D1D"/>
<path d="M83.5256 10.9377C84.0923 11.0052 84.563 11.1794 84.9377 11.4603C85.3124 11.7413 85.5811 12.1009 85.7438 12.5392C85.9117 12.9782 85.9638 13.4651 85.9001 14C85.8535 14.3919 85.7441 14.7467 85.5719 15.0646C85.4051 15.3831 85.1877 15.6526 84.9197 15.8732C84.6577 16.089 84.3517 16.2459 84.0016 16.3439C83.6569 16.4425 83.2806 16.4675 82.8728 16.4189C82.3062 16.3514 81.8355 16.1772 81.4607 15.8963C81.086 15.6153 80.8146 15.2554 80.6467 14.8164C80.4841 14.3781 80.4346 13.8915 80.4983 13.3566C80.545 12.9647 80.6517 12.6095 80.8186 12.291C80.9907 11.9732 81.2078 11.7063 81.4698 11.4904C81.7378 11.2699 82.0468 11.1107 82.3968 11.0127C82.7468 10.9147 83.1231 10.8897 83.5256 10.9377ZM82.9901 16.1106C83.2496 16.1415 83.4887 16.0733 83.7073 15.906C83.9266 15.7334 84.1127 15.479 84.2655 15.1427C84.419 14.8011 84.5238 14.3946 84.5799 13.9233C84.6348 13.4626 84.6184 13.0363 84.5308 12.6445C84.4491 12.2481 84.3103 11.9254 84.1144 11.6765C83.9191 11.4223 83.6837 11.2788 83.4083 11.246C83.1541 11.2157 82.9147 11.2865 82.6901 11.4585C82.4715 11.6258 82.2854 11.8803 82.132 12.2219C81.9791 12.5582 81.8746 12.962 81.8185 13.4333C81.7636 13.894 81.777 14.3226 81.8587 14.7191C81.9463 15.1109 82.0878 15.4339 82.2831 15.6881C82.4791 15.937 82.7147 16.0778 82.9901 16.1106Z" fill="#1D1D1D"/>
<path d="M94.3799 18.9975L94.3546 14.251L94.3173 14.2367L94.1869 13.5701L94.1408 13.4668L93.5804 13.2523L93.6805 12.9908L95.6754 13.7542L95.684 17.7834L95.7213 17.7977L98.425 14.8064L98.0333 15.83L97.9959 15.8157L94.9403 19.2119L94.3799 18.9975ZM91.7649 17.9968L91.8649 17.7353L92.4253 17.9497L92.5258 17.9111L94.1869 13.5701L94.3173 14.2367L92.862 18.0397L92.911 18.1356L93.546 18.3786L93.446 18.6401L91.7649 17.9968ZM96.0237 19.6265L96.1238 19.365L96.5347 19.5223L96.638 19.4761L98.425 14.8064L100.069 15.4354L99.9687 15.6969L99.5204 15.5254L99.4687 15.5484L97.7961 19.9193L97.8422 20.0226L98.2532 20.1799L98.1531 20.4414L96.0237 19.6265Z" fill="#1D1D1D"/>
<path d="M108.174 20.3417L107.805 20.1032L107.694 20.1271L105.179 24.0262L105.203 24.1368L105.572 24.3753L105.421 24.6106L103.505 23.3747L103.656 23.1394L104.026 23.3779L104.137 23.354L106.652 19.4549L106.628 19.3443L106.258 19.1058L106.41 18.8705L108.326 20.1065L108.174 20.3417Z" fill="#1D1D1D"/>
<path d="M111.94 29.8879L112.133 29.6851L112.481 30.016L112.594 30.0132L113.038 27.3653L114.052 28.3304L113.634 31.1134L114.011 31.4719L113.818 31.6747L111.94 29.8879ZM115.484 25.8616C115.666 26.0344 115.823 26.221 115.957 26.4214C116.094 26.6255 116.191 26.8324 116.249 27.0422C116.315 27.2519 116.327 27.459 116.287 27.6637C116.255 27.8683 116.154 28.0594 115.985 28.2371C115.823 28.4071 115.633 28.5175 115.416 28.5681C115.202 28.6225 114.978 28.6299 114.743 28.5905C114.512 28.5472 114.287 28.4697 114.069 28.3582C113.855 28.2428 113.665 28.1061 113.499 27.948L112.572 27.0656L113.081 27.053L111.371 28.8496L111.374 28.9627L111.693 29.266L111.5 29.4688L109.848 27.8971L110.041 27.6943L110.36 27.9976L110.473 27.9948L113.671 24.6334L113.669 24.5203L113.35 24.217L113.543 24.0142L115.484 25.8616ZM112.777 27.3717L112.765 26.8628L113.46 27.5245C113.592 27.6495 113.737 27.7365 113.897 27.7853C114.056 27.8342 114.228 27.828 114.411 27.7669C114.598 27.7094 114.789 27.5783 114.984 27.3735C115.15 27.1997 115.256 27.0178 115.305 26.828C115.356 26.6344 115.357 26.4514 115.308 26.2791C115.266 26.1066 115.183 25.9615 115.059 25.8439L114.683 25.4854L114.57 25.4882L112.777 27.3717Z" fill="#1D1D1D"/>
</svg>