<?xml version="1.0" standalone="no"?>
<!DOCTYPE svg PUBLIC "-//W3C//DTD SVG 20010904//EN"
 "http://www.w3.org/TR/2001/REC-SVG-20010904/DTD/svg10.dtd">
<svg version="1.0" xmlns="http://www.w3.org/2000/svg"
 width="1240.000000pt" height="1240.000000pt" viewBox="0 0 1240.000000 1240.000000"
 preserveAspectRatio="xMidYMid meet">
<metadata>
Created by potrace 1.14, written by Peter Selinger 2001-2017
</metadata>
<g transform="translate(0.000000,1240.000000) scale(0.100000,-0.100000)"
fill="#000000" stroke="none">
<path d="M5958 11156 c-1 -2 -59 -6 -128 -10 -69 -4 -137 -9 -150 -11 -14 -2
-56 -7 -95 -9 -38 -3 -79 -7 -90 -10 -11 -2 -47 -7 -80 -10 -33 -4 -67 -9 -75
-11 -8 -3 -31 -7 -50 -9 -19 -3 -60 -9 -90 -15 -30 -6 -68 -13 -85 -16 -16 -2
-41 -7 -55 -10 -14 -3 -36 -8 -50 -11 -14 -3 -33 -7 -42 -10 -10 -3 -30 -8
-45 -10 -16 -3 -62 -14 -103 -25 -41 -11 -82 -22 -90 -24 -8 -1 -42 -11 -75
-21 -33 -10 -62 -19 -65 -19 -3 -1 -12 -4 -20 -7 -8 -3 -64 -23 -125 -43 -60
-20 -123 -43 -140 -50 -16 -7 -46 -18 -65 -25 -94 -35 -381 -171 -495 -235
-150 -85 -338 -203 -343 -217 -2 -4 -8 -8 -13 -8 -17 0 -289 -208 -398 -305
-64 -56 -237 -223 -280 -268 -20 -22 -52 -56 -71 -76 -19 -21 -54 -59 -77 -87
-23 -27 -51 -60 -63 -74 -12 -14 -29 -34 -38 -45 -112 -131 -342 -467 -457
-669 -60 -106 -225 -428 -225 -439 0 -3 -12 -31 -27 -63 -15 -33 -28 -61 -28
-64 -1 -3 -11 -27 -23 -54 -12 -27 -22 -55 -22 -62 0 -8 -5 -14 -11 -14 -5 0
-8 -3 -5 -8 2 -4 -4 -25 -14 -47 -11 -22 -19 -47 -20 -56 0 -8 -4 -19 -9 -25
-22 -24 -183 -545 -205 -667 -3 -12 -5 -22 -6 -22 -2 0 -6 -19 -15 -64 -3 -19
-7 -37 -9 -40 -2 -3 -7 -24 -11 -46 -7 -45 -13 -70 -15 -70 -2 0 -11 -65 -13
-92 0 -13 -3 -23 -6 -23 -4 0 -7 -16 -8 -36 -1 -20 -4 -38 -6 -41 -3 -2 -49
-13 -103 -24 -101 -21 -184 -57 -259 -113 -54 -40 -141 -133 -162 -175 -51
-96 -60 -117 -57 -123 3 -4 0 -9 -5 -13 -9 -5 -27 -91 -23 -107 1 -5 -4 -8
-10 -9 -109 -7 -216 -32 -280 -65 -15 -8 -29 -13 -31 -12 -2 2 -11 -4 -20 -12
-9 -8 -43 -35 -75 -59 -66 -51 -114 -107 -159 -187 -31 -57 -62 -142 -67 -186
-1 -13 -5 -28 -8 -33 -8 -16 1 -199 16 -320 3 -22 8 -69 11 -105 3 -36 8 -83
11 -104 6 -40 12 -102 19 -191 2 -27 6 -68 9 -90 6 -39 12 -100 21 -180 2 -22
7 -67 10 -100 3 -33 8 -82 10 -110 2 -27 5 -51 6 -52 2 -3 3 -11 13 -123 4
-47 10 -98 12 -115 2 -16 6 -50 8 -75 19 -200 42 -277 117 -390 88 -132 223
-229 374 -266 17 -4 37 -9 45 -11 29 -8 165 -9 198 -2 35 8 40 3 46 -42 2 -13
6 -31 10 -39 3 -8 7 -24 9 -35 12 -73 95 -203 181 -282 62 -57 201 -137 229
-132 1 0 14 -4 28 -9 59 -23 194 -32 264 -18 17 4 46 9 65 12 60 9 211 91 270
147 93 87 154 182 184 287 34 119 36 190 9 405 -2 22 -6 58 -8 80 -3 39 -9 96
-20 185 -4 25 -8 65 -10 90 -3 52 -12 131 -26 250 -5 47 -11 105 -13 130 -2
25 -7 65 -10 90 -3 25 -8 70 -11 100 -3 30 -7 75 -10 100 -2 25 -7 77 -9 115
-3 39 -6 70 -7 70 -3 0 -11 63 -24 200 -5 50 -12 116 -20 190 -3 22 -7 67 -10
100 -6 62 -7 73 -20 190 -4 39 -8 81 -10 95 -2 26 -10 98 -21 190 -3 30 -8 75
-10 100 -17 181 -23 230 -40 295 -16 65 -54 152 -88 200 -35 51 -142 152 -190
180 -51 30 -51 30 -26 150 6 28 12 64 15 80 2 17 12 64 21 105 9 41 18 82 19
90 2 8 4 15 5 15 1 0 3 9 6 20 4 20 56 216 76 290 7 22 36 110 65 195 29 85
55 160 57 165 2 6 7 19 11 30 5 11 17 43 27 70 10 28 23 59 28 70 5 11 18 40
28 65 52 123 73 166 143 305 73 144 101 196 140 260 11 17 22 37 26 45 22 47
202 319 230 348 7 7 13 17 13 21 0 4 8 16 18 27 10 10 28 35 42 54 13 19 27
37 30 40 3 3 23 28 45 55 22 28 44 55 50 61 5 6 33 38 60 70 67 79 303 315
389 389 38 33 74 65 80 70 6 6 38 31 71 55 32 25 67 52 76 60 9 8 33 26 53 40
20 14 49 35 64 47 15 13 33 23 40 23 7 0 15 7 18 15 4 8 10 15 14 15 4 0 50
26 101 59 52 32 112 69 134 81 98 56 382 196 415 205 3 1 16 6 30 12 87 37
156 65 165 67 6 2 17 6 25 9 51 21 190 65 190 60 0 -3 6 -1 13 4 11 10 48 21
89 29 10 2 23 5 30 6 7 2 15 6 18 10 3 4 21 9 40 11 19 2 42 7 50 10 22 8 115
30 180 42 14 3 36 7 50 10 49 11 246 45 291 50 25 3 56 8 70 11 13 2 56 7 94
10 39 2 81 7 95 9 147 27 891 26 1065 0 16 -3 55 -7 85 -9 61 -5 112 -12 212
-27 37 -6 78 -12 90 -14 13 -2 34 -6 48 -9 14 -3 39 -8 57 -10 18 -3 40 -7 50
-10 10 -3 29 -7 43 -10 43 -9 73 -16 135 -31 33 -9 70 -18 82 -20 12 -3 34
-10 48 -15 14 -5 29 -9 33 -8 4 1 14 -1 22 -5 8 -3 67 -22 130 -42 138 -45
376 -140 480 -191 41 -21 77 -38 80 -39 25 -5 393 -216 410 -235 3 -3 41 -30
85 -60 280 -190 581 -467 822 -757 10 -12 26 -31 36 -43 90 -108 317 -429 317
-449 0 -6 5 -11 10 -11 6 0 10 -4 10 -10 0 -5 16 -34 35 -64 19 -30 35 -59 35
-65 0 -5 3 -11 8 -13 10 -4 61 -98 160 -299 105 -213 122 -252 197 -444 91
-235 104 -272 109 -299 3 -14 7 -30 10 -35 7 -11 56 -176 62 -210 3 -13 9 -32
15 -43 5 -10 7 -18 3 -18 -3 0 -1 -6 5 -13 6 -8 8 -17 5 -20 -3 -3 -2 -12 2
-19 5 -7 10 -22 11 -33 2 -11 6 -27 10 -35 3 -8 7 -22 8 -30 2 -16 17 -89 21
-105 2 -5 14 -64 27 -130 22 -105 23 -121 10 -130 -215 -145 -314 -292 -338
-505 -23 -193 -34 -300 -40 -385 -2 -27 -5 -50 -6 -50 -1 0 -3 -20 -4 -45 -2
-25 -4 -45 -5 -45 -1 0 -3 -13 -5 -30 -6 -68 -17 -182 -20 -210 -2 -16 -7 -57
-10 -90 -4 -33 -8 -73 -10 -90 -8 -63 -16 -142 -20 -190 -2 -27 -6 -68 -9 -90
-3 -22 -8 -67 -11 -100 -3 -33 -7 -76 -9 -95 -3 -19 -7 -60 -10 -90 -3 -30 -8
-77 -11 -105 -3 -27 -7 -66 -10 -85 -2 -19 -7 -66 -11 -105 -12 -121 -22 -219
-29 -275 -3 -19 -8 -66 -11 -105 -4 -38 -8 -81 -9 -95 -2 -14 -6 -56 -9 -95
-4 -38 -9 -81 -11 -95 -23 -137 -24 -280 -3 -360 27 -103 30 -112 61 -169 32
-58 42 -71 101 -137 44 -49 150 -127 160 -117 3 3 6 1 6 -5 0 -9 87 -45 100
-40 3 1 15 -4 27 -10 63 -34 271 -31 363 5 8 4 17 7 20 7 19 3 102 45 139 70
53 35 168 150 182 180 5 11 17 35 28 51 22 37 61 148 61 175 0 23 -3 22 80 25
55 2 111 9 155 20 10 2 36 11 70 24 11 5 23 9 28 10 13 2 71 35 107 61 113 80
198 196 243 330 17 51 26 100 33 180 5 64 10 108 18 170 3 25 8 74 12 110 16
163 21 212 29 285 3 28 7 68 10 90 2 22 7 67 10 100 4 33 9 80 10 105 2 25 7
65 10 90 3 25 8 63 9 85 2 22 7 69 11 105 4 36 8 80 8 98 1 17 4 32 7 32 3 0
5 17 6 38 1 38 12 163 14 172 10 28 -6 176 -23 220 -3 8 -11 33 -18 55 -6 22
-17 47 -25 55 -7 8 -13 20 -13 25 -1 6 -8 18 -16 28 -8 9 -15 21 -15 25 0 15
-85 105 -139 146 -70 54 -146 90 -236 111 -87 21 -98 27 -101 49 -14 96 -49
184 -105 268 -44 65 -135 158 -155 158 -7 0 -17 6 -21 13 -24 38 -206 104
-294 106 -27 1 -32 11 -45 96 -4 19 -16 84 -19 95 -11 44 -18 88 -16 98 1 6
-3 12 -9 12 -6 0 -8 5 -5 11 4 5 2 22 -4 37 -5 15 -12 41 -15 57 -3 17 -9 46
-15 65 -5 19 -17 62 -26 95 -25 93 -55 198 -62 215 -3 8 -7 20 -8 26 -6 27
-103 301 -121 341 -8 17 -14 35 -14 40 0 4 -7 22 -16 38 -9 17 -17 37 -19 45
-2 8 -14 38 -26 65 -13 28 -22 53 -21 58 1 4 -2 7 -6 7 -5 0 -9 6 -9 13 0 25
-239 498 -255 505 -5 2 -8 8 -8 14 0 12 -147 256 -166 276 -7 6 -16 21 -19 32
-3 11 -11 20 -16 20 -5 0 -9 7 -9 15 0 8 -4 15 -9 15 -5 0 -13 9 -16 20 -3 11
-12 26 -18 32 -20 22 -97 127 -97 133 0 3 -11 17 -25 31 -14 14 -25 28 -25 32
0 4 -10 18 -22 32 -13 14 -57 66 -98 115 -41 49 -92 107 -112 127 -20 21 -35
38 -32 38 7 0 -247 249 -303 297 -31 26 -64 55 -73 63 -9 8 -49 42 -90 74 -41
33 -77 63 -80 66 -3 3 -21 17 -40 30 -19 13 -37 27 -40 30 -3 3 -27 21 -55 40
-27 19 -51 38 -53 42 -2 4 -7 8 -12 8 -4 0 -71 41 -149 90 -77 50 -143 90
-146 90 -2 0 -27 14 -56 30 -28 17 -56 32 -63 33 -6 1 -13 5 -16 9 -8 10 -279
138 -293 138 -7 0 -17 4 -23 9 -17 16 -356 144 -414 156 -8 2 -16 4 -17 5 -2
2 -6 3 -10 4 -5 2 -28 8 -53 16 -25 7 -49 15 -55 16 -5 1 -35 10 -67 18 -31 8
-68 17 -82 20 -14 3 -29 7 -34 10 -9 5 -49 14 -101 21 -18 3 -36 7 -40 10 -7
4 -47 12 -96 20 -40 6 -98 17 -119 22 -11 2 -28 5 -36 5 -8 0 -37 3 -65 8 -52
9 -135 20 -195 26 -60 5 -153 14 -205 20 -53 6 -711 15 -717 10z"/>
<path d="M5880 10303 c-51 -7 -71 -14 -65 -23 4 -6 17 -8 30 -6 32 6 35 0 25
-54 -5 -25 -11 -67 -15 -95 -4 -27 -10 -68 -14 -90 -8 -39 -8 -39 -15 -12 -5
15 -12 27 -17 27 -5 0 -8 3 -7 8 1 4 -19 49 -45 100 -48 95 -53 107 -38 98 4
-3 17 1 27 9 15 11 16 15 4 16 -22 2 -90 -5 -157 -17 -33 -6 -36 -24 -4 -24
10 0 22 -13 29 -34 12 -31 6 -78 -23 -186 -2 -8 -4 -24 -5 -35 -2 -20 -90 149
-90 173 0 6 -5 12 -11 12 -5 0 -8 4 -4 9 3 5 1 12 -5 16 -17 11 -11 35 10 35
13 0 18 5 14 15 -4 8 -10 12 -15 9 -5 -3 -23 -7 -41 -8 -113 -12 -160 -26
-118 -36 20 -4 38 -31 92 -140 37 -74 68 -141 68 -147 0 -7 5 -13 10 -13 6 0
10 -6 10 -12 0 -7 9 -27 19 -45 15 -23 25 -30 40 -26 18 4 26 22 37 78 2 11 8
40 14 65 5 25 12 59 15 75 11 56 16 80 19 83 5 5 46 -64 46 -77 0 -7 5 -17 10
-24 6 -7 27 -46 48 -87 52 -101 89 -109 98 -19 3 24 10 71 15 104 6 33 13 76
15 95 2 19 6 46 9 60 3 14 7 41 10 60 6 37 11 45 26 45 5 0 9 5 9 10 0 11 -18
13 -60 8z"/>
<path d="M6619 10286 c-2 -3 -17 -7 -31 -10 -32 -5 -90 -47 -111 -80 -19 -28
-47 -122 -40 -130 3 -3 6 -20 5 -38 -2 -71 77 -162 152 -175 164 -27 277 60
278 213 1 98 -41 167 -122 200 -36 16 -122 29 -131 20z m95 -47 c94 -74 53
-349 -55 -365 -67 -10 -114 64 -113 176 1 80 17 132 56 176 35 40 72 44 112
13z"/>
<path d="M7490 10104 c0 -8 3 -13 8 -13 43 7 42 -12 -9 -141 -87 -222 -83
-215 -118 -214 -46 1 -38 -12 22 -34 28 -11 60 -23 70 -27 10 -4 17 -3 17 4 0
6 -11 16 -25 21 -27 10 -30 20 -16 48 10 19 27 61 71 180 17 45 33 82 35 82 2
0 4 -81 5 -181 0 -100 3 -185 6 -190 11 -19 48 -8 75 24 16 17 29 36 29 40 0
5 5 5 10 2 6 -3 10 -1 10 5 0 5 27 38 59 73 33 34 68 73 80 87 l20 25 -8 -30
c-10 -33 -46 -129 -61 -160 -6 -11 -16 -38 -24 -60 -9 -29 -19 -40 -34 -40
-44 0 -30 -14 45 -44 43 -17 84 -31 91 -31 19 0 14 17 -8 23 -19 5 -19 7 6 68
14 35 27 71 29 79 1 8 10 31 18 50 18 43 43 105 57 143 8 24 13 26 30 17 16
-8 20 -8 20 3 0 8 -21 22 -47 32 -27 10 -53 22 -59 27 -8 6 -27 -8 -55 -39
-24 -25 -67 -71 -95 -100 -28 -29 -50 -54 -49 -56 1 -1 -7 -10 -17 -19 -22
-22 -20 -31 -23 132 -3 183 -3 180 -19 180 -7 0 -31 8 -52 17 -22 9 -42 18
-46 19 -5 1 -9 2 -10 4 -12 9 -38 5 -38 -6z"/>
<path d="M4610 10009 c0 -5 -4 -8 -9 -4 -5 3 -12 1 -15 -3 -3 -5 -8 -105 -10
-222 -5 -188 -8 -214 -23 -225 -20 -15 -12 -30 12 -22 8 4 19 7 23 8 4 0 16 6
27 12 20 11 26 13 46 16 5 0 7 6 4 12 -4 6 -19 7 -36 4 l-30 -7 3 64 c2 34 8
63 13 64 6 0 26 7 46 16 72 31 74 31 118 -14 l41 -43 -22 -17 c-23 -17 -23
-18 -2 -18 11 0 47 11 80 24 32 12 68 26 79 30 15 6 17 9 6 16 -8 4 -19 6 -25
4 -6 -2 -56 44 -111 102 -55 59 -122 131 -150 160 -50 54 -65 64 -65 43z m66
-189 c37 -40 40 -46 25 -57 -9 -7 -24 -13 -33 -13 -9 0 -20 -4 -23 -10 -3 -5
-14 -10 -24 -10 -16 0 -18 9 -17 79 1 90 0 89 72 11z"/>
<path d="M8506 9641 c-4 -5 2 -14 11 -20 17 -9 17 -11 -1 -43 -11 -18 -24 -37
-28 -43 -11 -13 -42 -62 -101 -157 -54 -87 -62 -95 -82 -78 -9 7 -15 8 -20 1
-5 -9 67 -63 132 -97 29 -16 39 -4 14 16 -19 15 -18 17 29 90 27 41 54 80 59
87 6 7 11 15 11 19 0 4 11 22 25 40 14 18 25 36 25 41 1 17 40 54 50 48 6 -4
18 -4 27 -1 12 5 2 15 -38 39 -30 18 -66 41 -81 50 -16 11 -29 14 -32 8z"/>
<path d="M3760 9575 c-18 -13 -38 -22 -44 -18 -6 3 -8 3 -4 -2 5 -5 -6 -16
-22 -26 -17 -11 -30 -23 -30 -29 0 -13 13 -13 28 2 14 14 8 21 75 -82 53 -82
55 -86 40 -113 -8 -16 -12 -36 -10 -45 3 -13 7 -11 17 11 7 15 17 27 21 27 5
0 16 -12 26 -27 10 -16 20 -30 23 -33 26 -25 34 -80 9 -65 -5 4 -9 -1 -9 -10
0 -12 5 -15 16 -11 16 6 125 76 134 86 3 3 22 14 43 25 20 11 37 22 37 26 0 3
11 11 24 17 l25 11 -22 65 c-12 36 -26 64 -32 63 -5 -2 -10 -24 -11 -48 0 -24
-6 -57 -12 -74 -17 -42 -102 -97 -102 -66 0 5 -20 39 -44 76 l-44 67 29 49
c34 58 46 99 30 99 -6 0 -11 -7 -11 -15 0 -8 -4 -15 -10 -15 -5 0 -10 -5 -10
-11 0 -7 -9 -27 -21 -45 -18 -29 -22 -32 -35 -20 -8 8 -14 18 -14 21 0 4 -14
27 -30 52 -29 43 -30 46 -14 64 26 29 -4 25 -46 -6z"/>
<path d="M9077 9234 c-3 -3 -1 -15 6 -25 13 -21 23 -7 -147 -185 -86 -90 -101
-102 -118 -93 -41 22 -28 -2 31 -61 57 -56 81 -71 81 -52 0 4 -5 13 -12 20 -9
9 3 26 50 74 34 34 64 59 68 56 3 -4 1 -38 -6 -75 -7 -37 -14 -81 -17 -98 -6
-35 -14 -46 -20 -27 -5 13 -33 17 -33 5 0 -8 63 -70 122 -122 32 -28 50 -21
24 8 -10 11 -15 28 -12 38 6 19 17 98 22 148 1 17 3 33 3 37 1 7 17 5 41 -6
20 -8 81 -3 101 9 30 18 49 69 39 105 -16 56 -23 64 -177 213 -22 20 -42 35
-46 31z m148 -206 c-7 -36 -26 -68 -42 -68 -6 0 -13 -5 -15 -12 -7 -20 -67
-13 -93 12 -14 13 -25 27 -25 32 0 5 25 35 55 66 30 31 55 62 55 67 1 6 16 -8
35 -29 28 -31 34 -45 30 -68z"/>
<path d="M3203 9132 c-3 -12 -11 -22 -17 -22 -20 0 -77 -47 -101 -82 -39 -57
-37 -111 5 -158 26 -29 38 -35 77 -36 26 -1 76 8 112 20 36 12 73 21 81 20 8
-1 22 -2 31 -3 21 -1 41 -48 33 -74 -9 -29 -24 -42 -66 -57 -33 -12 -76 -9
-147 11 -34 10 -14 -20 39 -59 57 -42 85 -48 73 -17 -3 9 1 15 9 15 25 0 98
59 121 98 38 64 26 135 -29 176 -34 24 -84 24 -168 -2 -86 -28 -114 -28 -137
0 -22 24 -23 32 -9 59 16 29 91 60 120 49 3 -1 14 -3 25 -4 11 -2 30 -6 43
-10 33 -11 27 9 -10 35 -18 13 -35 26 -38 29 -3 3 -13 11 -23 19 -16 13 -19
12 -24 -7z"/>
<path d="M5315 7362 c-2 -2 -38 -5 -82 -7 -43 -2 -127 -7 -188 -11 -60 -3
-243 -7 -405 -8 l-295 -1 -3 -86 c-3 -101 -20 -89 153 -114 60 -9 112 -18 114
-21 3 -3 5 -493 6 -1090 0 -957 -2 -1087 -15 -1094 -8 -4 -40 -11 -70 -14 -30
-3 -80 -9 -110 -13 -30 -4 -64 -7 -76 -7 -20 -1 -21 -6 -21 -89 0 -88 0 -89
24 -84 12 2 23 1 23 -2 0 -3 19 -5 42 -4 50 3 79 4 133 2 22 0 45 0 50 1 6 1
15 1 20 0 13 -2 87 -2 100 0 6 1 14 2 19 1 5 -1 77 -4 160 -6 83 -2 201 -7
261 -11 141 -10 374 -10 445 -1 60 8 73 11 110 20 14 4 36 9 50 11 14 2 39 9
55 16 17 6 39 14 50 16 11 2 29 8 40 13 11 5 56 26 100 47 44 21 82 40 85 43
3 3 31 23 62 44 31 21 66 46 76 56 153 132 247 255 334 438 42 87 104 266 112
323 1 8 6 35 10 60 4 25 9 59 11 75 2 17 4 30 5 30 4 0 9 115 9 220 1 114 -4
197 -14 252 -4 18 -8 45 -9 60 -2 16 -5 29 -6 31 -1 1 -3 10 -4 20 -1 9 -5 23
-9 30 -5 6 -6 12 -3 12 9 0 -24 101 -61 190 -38 91 -127 233 -181 290 -18 19
-36 38 -40 43 -61 64 -187 152 -278 192 -72 32 -164 65 -164 59 0 -2 -13 2
-30 11 -16 8 -31 15 -32 14 -4 -2 -91 11 -121 18 -24 5 -83 12 -139 17 -21 1
-41 5 -44 9 -4 3 -14 2 -24 -3 -10 -5 -20 -7 -23 -3 -6 6 -206 11 -212 5z
m165 -196 c134 -14 219 -37 330 -88 36 -17 75 -40 88 -51 12 -11 22 -18 22
-14 0 3 16 -8 36 -26 79 -71 154 -155 154 -173 0 -6 7 -15 16 -18 9 -4 14 -9
11 -13 -4 -3 3 -18 14 -34 27 -38 73 -151 94 -229 0 -3 4 -14 8 -25 7 -21 14
-56 23 -115 3 -19 7 -40 9 -47 2 -6 7 -56 11 -110 3 -54 8 -100 10 -102 2 -2
-1 -10 -7 -18 -6 -7 -7 -13 -2 -13 16 0 -2 -322 -22 -390 -2 -8 -7 -31 -10
-50 -3 -19 -10 -49 -16 -66 -5 -17 -11 -40 -13 -50 -7 -34 -47 -127 -88 -206
-123 -236 -350 -393 -628 -432 -47 -7 -333 -7 -385 -1 -16 2 -55 7 -85 10 -30
3 -56 8 -58 10 -6 5 -6 2225 -1 2229 5 5 94 15 199 22 47 4 86 7 87 8 4 3 152
-3 203 -8z"/>
<path d="M7009 7335 c-1 0 -6 -20 -13 -52 -3 -13 -1 -23 4 -23 6 0 6 -9 1 -23
-5 -13 -6 -30 -1 -37 4 -7 6 -19 3 -26 -5 -15 12 -20 92 -29 33 -3 71 -8 85
-10 71 -10 126 -17 138 -18 6 0 13 -3 14 -6 4 -16 10 -232 8 -301 0 -8 0 -35
0 -60 0 -25 0 -52 0 -60 0 -8 0 -35 0 -60 0 -25 0 -52 0 -60 0 -8 0 -35 0 -60
0 -25 0 -52 0 -60 0 -8 0 -134 0 -280 0 -146 0 -272 0 -280 0 -8 0 -35 0 -60
0 -61 0 -60 -3 -102 -1 -21 1 -38 6 -38 6 0 5 -5 0 -12 -5 -7 -8 -31 -6 -53 2
-22 4 -44 4 -50 -1 -5 -3 -113 -5 -240 -5 -224 -9 -318 -21 -400 -3 -22 -7
-54 -9 -72 -3 -18 -7 -40 -10 -50 -3 -10 -7 -29 -10 -43 -13 -72 -77 -218
-121 -275 -71 -91 -196 -197 -249 -211 -14 -3 -26 -9 -26 -14 0 -4 -18 -12
-40 -19 -22 -6 -40 -14 -40 -17 0 -9 93 -144 99 -144 6 0 73 17 106 26 11 3
32 8 48 11 15 3 27 9 27 14 0 5 7 9 15 9 25 0 145 64 220 118 99 71 195 168
231 234 11 18 21 35 25 38 7 7 42 82 45 96 1 6 9 27 18 45 8 19 18 45 20 59 3
14 5 26 7 28 3 4 14 69 24 147 14 110 18 374 19 1230 1 639 4 970 11 971 12 0
138 17 145 19 3 1 32 5 65 10 33 4 67 9 75 11 8 1 17 3 20 3 10 2 5 171 -5
172 -7 1 -1009 5 -1016 4z"/>
<path d="M3687 3203 c-14 -16 -14 -20 4 -41 l19 -24 -44 -46 c-25 -26 -54 -58
-66 -72 -12 -14 -54 -61 -93 -104 -40 -43 -82 -90 -95 -104 -22 -25 -24 -25
-51 -9 -26 15 -28 15 -43 -2 -15 -17 -13 -21 21 -49 20 -17 68 -62 107 -100
93 -91 160 -124 244 -121 210 8 385 248 299 411 -21 41 -184 208 -201 208 -5
0 -22 16 -39 35 -36 40 -40 41 -62 18z m196 -212 c32 -47 33 -120 3 -176 -24
-46 -36 -61 -88 -113 -52 -52 -64 -61 -104 -78 -36 -15 -124 -17 -124 -2 0 4
-6 8 -13 8 -7 0 -29 16 -50 36 -36 35 -37 38 -20 54 10 9 41 43 68 74 28 32
64 72 80 90 17 18 61 67 99 109 l69 76 28 -21 c16 -12 39 -38 52 -57z"/>
<path d="M8674 3148 c-31 -29 -65 -59 -75 -66 -23 -16 -24 -26 -3 -46 14 -14
18 -14 37 -1 30 21 32 20 33 -22 1 -21 4 -94 8 -163 l7 -125 -28 31 c-15 17
-54 59 -85 94 -62 67 -67 77 -43 86 19 8 19 38 1 53 -11 10 -31 -3 -100 -65
-47 -42 -86 -79 -86 -83 0 -3 4 -13 10 -21 8 -12 13 -12 44 3 20 9 36 13 36 9
1 -7 37 -49 138 -158 26 -27 65 -70 86 -95 22 -24 50 -56 64 -71 l24 -26 -21
-23 c-26 -28 -26 -31 -3 -46 15 -9 25 -5 58 26 22 20 61 55 87 79 52 47 56 57
27 72 -11 6 -20 7 -20 2 0 -5 -11 -14 -24 -20 -21 -9 -27 -8 -40 11 -8 12 -29
37 -45 56 -26 28 -31 42 -31 82 0 45 2 49 23 49 13 0 26 -3 30 -6 7 -8 137
-54 155 -56 6 -1 12 -4 12 -8 0 -4 6 -7 13 -7 6 -1 32 -4 56 -8 32 -6 42 -5
37 3 -4 7 -4 12 1 12 4 0 28 18 52 39 42 38 43 40 27 57 -14 14 -22 15 -36 6
-18 -11 -41 -7 -169 33 -30 9 -62 18 -72 20 -9 2 -34 8 -54 14 -21 6 -41 8
-45 6 -3 -2 -12 0 -19 4 -8 6 -13 43 -14 121 -2 106 -1 115 20 138 22 24 22
26 7 44 -10 10 -18 18 -20 18 -2 0 -29 -24 -60 -52z"/>
<path d="M4432 2622 c-7 -9 -27 -39 -47 -66 l-34 -50 27 -17 c26 -16 28 -16
57 10 16 14 33 31 38 38 5 9 16 8 45 -3 69 -28 152 -69 152 -75 0 -7 -50 -23
-62 -21 -5 1 -8 -2 -8 -7 0 -5 -15 -14 -32 -22 -18 -7 -35 -16 -38 -19 -3 -4
-39 -25 -80 -47 -41 -22 -113 -62 -160 -88 -47 -26 -97 -54 -112 -62 -35 -18
-41 -29 -34 -56 4 -16 48 -43 173 -107 93 -47 170 -88 173 -91 3 -4 14 -9 25
-12 16 -5 29 7 68 66 l47 72 -21 18 c-12 9 -24 17 -28 17 -3 0 -27 -20 -53
-44 l-46 -44 -31 19 c-17 10 -36 19 -40 19 -5 0 -41 15 -80 33 l-71 34 40 12
c22 6 79 35 127 63 49 28 113 64 143 81 30 16 65 36 77 43 12 8 44 26 70 41
79 43 82 46 80 71 -1 18 -20 33 -92 71 -282 151 -260 141 -273 123z"/>
<path d="M7935 2592 c-16 -9 -33 -21 -37 -27 -4 -5 -8 -6 -8 -1 0 5 -6 4 -12
-2 -7 -5 -68 -38 -136 -73 -108 -55 -122 -64 -116 -83 9 -29 9 -30 43 -18 29
10 32 9 47 -21 58 -112 128 -244 137 -254 5 -7 6 -13 1 -13 -5 0 -4 -4 1 -8 6
-4 23 -32 38 -62 l26 -55 -27 -22 c-25 -20 -26 -23 -11 -38 14 -15 22 -12 100
27 46 24 86 46 87 51 2 4 7 5 12 2 5 -3 14 0 22 7 7 7 36 24 63 38 28 13 52
27 55 30 3 3 11 6 18 8 7 1 24 10 37 18 23 15 24 18 10 50 -8 19 -14 37 -14
40 1 2 -4 18 -11 34 -14 33 -27 37 -54 17 -17 -13 -21 -31 -13 -80 3 -21 -2
-32 -23 -47 -16 -11 -33 -20 -39 -20 -6 0 -11 -4 -11 -10 0 -5 -6 -10 -12 -10
-7 0 -24 -9 -38 -20 -14 -11 -30 -20 -35 -20 -6 0 -33 44 -61 98 l-51 97 49
25 49 24 25 -27 c21 -23 28 -25 45 -16 11 6 19 13 17 17 -28 64 -85 162 -94
162 -21 0 -34 -27 -28 -56 5 -27 2 -32 -39 -52 -24 -12 -46 -22 -49 -22 -2 0
-20 30 -38 68 -19 37 -37 69 -41 72 -3 3 -9 14 -12 25 -6 17 5 25 71 56 l77
37 30 -28 c24 -22 35 -26 53 -19 27 10 27 12 5 52 -41 72 -56 79 -108 49z"/>
<path d="M5172 2275 c-1 -17 6 -26 28 -35 17 -7 30 -13 30 -14 0 -1 -5 -17
-11 -36 -5 -19 -12 -46 -15 -60 -3 -14 -12 -48 -20 -76 -8 -28 -17 -60 -19
-70 -2 -11 -12 -46 -21 -79 -9 -33 -17 -64 -18 -70 -1 -5 -5 -16 -9 -22 -5 -7
-6 -13 -2 -13 3 0 1 -9 -5 -19 -8 -16 -15 -18 -39 -11 -25 7 -30 5 -35 -13 -8
-32 -7 -38 7 -36 6 1 19 0 27 -4 15 -5 62 -17 89 -23 8 -2 26 -6 40 -9 14 -4
26 -5 27 -3 0 2 7 -2 15 -9 17 -13 32 -6 42 19 4 13 -2 20 -29 30 -23 8 -33
17 -30 28 17 55 59 208 62 225 2 11 17 65 32 121 l27 100 36 -4 c30 -2 37 1
42 17 6 24 -10 40 -49 45 -16 3 -55 12 -88 21 -96 27 -112 27 -114 0z"/>
<path d="M7047 2244 c-2 -2 -19 -5 -37 -8 -19 -3 -60 -12 -90 -21 -30 -10 -64
-19 -75 -21 -11 -2 -39 -9 -61 -16 -37 -12 -41 -15 -33 -35 6 -18 15 -22 39
-19 17 2 30 -1 31 -8 1 -11 2 -17 13 -63 3 -13 8 -31 10 -41 2 -9 9 -37 16
-62 7 -25 14 -54 15 -65 2 -11 10 -46 18 -77 8 -32 12 -58 9 -58 -2 0 1 -7 8
-15 7 -9 10 -18 7 -21 -3 -3 -2 -16 3 -29 8 -20 5 -25 -21 -35 -31 -13 -39
-44 -13 -54 8 -3 23 -2 32 3 9 5 35 12 57 15 22 4 47 8 55 11 8 2 31 6 52 9
115 17 201 74 244 162 23 47 27 68 26 132 0 42 -2 84 -5 92 -2 8 -8 29 -12 45
-19 68 -92 150 -149 167 -37 11 -132 19 -139 12z m35 -64 c78 -22 141 -133
154 -270 5 -54 2 -82 -10 -114 -15 -40 -66 -101 -66 -80 0 5 -4 3 -8 -3 -10
-16 -100 -34 -108 -22 -11 18 -31 96 -28 112 1 9 -2 17 -7 17 -6 0 -7 4 -4 10
3 5 2 18 -3 27 -6 10 -12 34 -15 53 -13 81 -19 106 -29 118 -6 6 -8 12 -6 12
3 0 -1 26 -8 57 -7 32 -10 61 -6 65 7 7 71 24 97 27 6 0 26 -4 47 -9z"/>
<path d="M6023 2138 c-5 -7 -20 -44 -33 -83 -12 -38 -26 -74 -30 -80 -4 -5
-24 -59 -45 -120 -21 -60 -42 -114 -46 -119 -5 -6 -9 -16 -9 -24 0 -31 -41
-102 -59 -102 -21 0 -33 -21 -22 -38 4 -6 48 -13 104 -15 l97 -4 0 27 c0 23
-4 28 -25 28 -14 0 -28 2 -31 4 -2 3 3 27 12 54 l16 50 100 -2 c55 -2 102 -5
105 -7 2 -3 10 -27 17 -54 13 -49 13 -49 -12 -51 -30 -2 -31 -3 -37 -31 -3
-19 1 -21 48 -22 29 0 82 -2 119 -3 88 -2 98 14 35 57 -9 7 -19 21 -21 32 -2
11 -9 32 -15 48 -6 15 -8 27 -5 27 4 0 2 6 -4 13 -6 7 -13 24 -16 37 -2 14
-17 63 -32 110 -15 47 -28 90 -30 96 -1 6 -14 50 -29 97 l-28 87 -57 0 c-34 0
-61 -5 -67 -12z m54 -110 c1 -24 21 -103 50 -196 11 -37 13 -56 6 -60 -6 -4
-45 -6 -86 -4 -81 4 -86 9 -58 61 6 11 10 24 10 28 -1 4 1 16 4 26 22 57 23
60 31 92 15 66 41 98 43 53z"/>
</g>
</svg>
